{"title":"The Suspicions of Mr Whicher S02E02 x264 RB58.mp4","uid":11034870,"size":1019983888,"categoryP":"video","categoryS":"tv_shows","magnet":"?xt=urn:btih:2b38cf429e69a0e4b104346e07b62509ce2d9a00&amp;dn=The+Suspicions+of+Mr+Whicher+S02E02+x264+RB58.mp4&amp;tr=udp%3A%2F%2Ftracker.openbittorrent.com%3A80&amp;tr=udp%3A%2F%2Fopen.demonii.com%3A1337&amp;tr=udp%3A%2F%2Ftracker.coppersurfer.tk%3A6969&amp;tr=udp%3A%2F%2Fexodus.desync.com%3A6969","seeders":2,"leechers":0,"uploader":"RedBaron58","files":1,"time":1410740965,"description":"The Suspicions of Mr Whicher S02E02 The Ties That Bind x264 mp4\n &lt;a href=&quot;\nhttp://www.imdb.com/title/tt3923996/&quot; rel=&quot;nofollow&quot; target=&quot;_NEW&quot;&gt;\nhttp://www.imdb.com/title/tt3923996/&lt;/a&gt;\n\nTrailer:\n\n\n\nThank you for your kind comments and thumbs ups on my other torrents, your feedback is welcome.\n\n\nAbout the Episode:\nHired by West Country landowner Sir Henry Coverley, Whicher takes on a seemingly straightforward case \nof infidelity, following his client's young wife as she meets her lover in London. \nHowever, when a key witness mysteriously fails to attend the divorce hearing, the investigation takes \na dark twist, leading the private inquiry agent into the heart of the English countryside and to the \nmost disturbing and destructive of secrets. \n\n\nI hope you enjoy.\n\n\nTechnical:\n\nGeneral\nComplete name                            : H:The Suspicions of Mr Whicher S02E02 x264 RB58.mp4\nFormat                                   : MPEG-4\nFormat profile                           : Base Media\nCodec ID                                 : isom\nFile size                                : 973 MiB\nDuration                                 : 1h 28mn\nOverall bit rate                         : 1 531 Kbps\nWriting application                      : Lavf54.63.104\n\nVideo\nID                                       : 1\nFormat                                   : AVC\nFormat/Info                              : Advanced Video Codec\nFormat profile                           : &lt;a class=&quot;__cf_email__&quot; href=&quot;/cdn-cgi/l/email-protection&quot; data-cfemail=&quot;c68eafa1ae868af5e8f6&quot;&gt;[email&amp;#160;protected]&lt;/a&gt;&lt;script cf-hash='f9e31' type=&quot;text/javascript&quot;&gt;\n/* &lt;![CDATA[ */!function(){try{var t=&quot;currentScript&quot;in document?document.currentScript:function(){for(var t=document.getElementsByTagName(&quot;script&quot;),e=t.length;e--;)if(t[e].getAttribute(&quot;cf-hash&quot;))return t[e]}();if(t&amp;&amp;t.previousSibling){var e,r,n,i,c=t.previousSibling,a=c.getAttribute(&quot;data-cfemail&quot;);if(a){for(e=&quot;&quot;,r=parseInt(a.substr(0,2),16),n=2;a.length-n;n+=2)i=parseInt(a.substr(n,2),16)^r,e+=String.fromCharCode(i);e=document.createTextNode(e),c.parentNode.replaceChild(e,c)}}}catch(u){}}();/* ]]&gt; */&lt;/script&gt;\nFormat settings, CABAC                   : Yes\nFormat settings, ReFrames                : 4 frames\nCodec ID                                 : avc1\nCodec ID/Info                            : Advanced Video Coding\nDuration                                 : 1h 28mn\nBit rate                                 : 1 400 Kbps\nWidth                                    : 832 pixels\nHeight                                   : 468 pixels\nDisplay aspect ratio                     : 16:9\nFrame rate mode                          : Constant\nFrame rate                               : 25.000 fps\nColor space                              : YUV\nChroma subsampling                       : 4:2:0\nBit depth                                : 8 bits\nScan type                                : Progressive\nBits/(Pixel*Frame)                       : 0.144\nStream size                              : 890 MiB (91%)\nWriting library                          : x264 core 123 r2189 35cf912\nEncoding settings                        : cabac=1 / ref=3 / deblock=1:0:0\n\nAudio\nID                                       : 2\nFormat                                   : AAC\nFormat/Info                              : Advanced Audio Codec\nFormat profile                           : LC\nCodec ID                                 : 40\nDuration                                 : 1h 28mn\nBit rate mode                            : Constant\nBit rate                                 : 122 Kbps\nChannel(s)                               : 2 channels\nChannel positions                        : Front: L R\nSampling rate                            : 48.0 KHz\nCompression mode                         : Lossy\nStream size                              : 77.4 MiB (8%)","torrent":{"xt":"urn:btih:2b38cf429e69a0e4b104346e07b62509ce2d9a00","amp;dn":"The+Suspicions+of+Mr+Whicher+S02E02+x264+RB58.mp4","amp;tr":["udp%3A%2F%2Ftracker.openbittorrent.com%3A80","udp%3A%2F%2Fopen.demonii.com%3A1337","udp%3A%2F%2Ftracker.coppersurfer.tk%3A6969","udp%3A%2F%2Fexodus.desync.com%3A6969"],"infoHash":"2b38cf429e69a0e4b104346e07b62509ce2d9a00","infoHashBuffer":{"type":"Buffer","data":[43,56,207,66,158,105,160,228,177,4,52,110,7,182,37,9,206,45,154,0]},"announce":[],"urlList":[]}}